<svg width="64" height="65" viewBox="0 0 64 65" fill="none" xmlns="http://www.w3.org/2000/svg">
<path d="M31.9914 21.9953C26.1154 21.9953 21.3202 26.7905 21.3202 32.6665C21.3202 38.5425 26.1154 43.3377 31.9914 43.3377C37.8674 43.3377 42.6626 38.5425 42.6626 32.6665C42.6626 26.7905 37.8674 21.9953 31.9914 21.9953ZM63.997 32.6665C63.997 28.2475 64.037 23.8686 63.7889 19.4576C63.5407 14.3341 62.3719 9.78705 58.6254 6.04051C54.8708 2.28598 50.3318 1.12519 45.2083 0.877026C40.7893 0.628858 36.4104 0.668885 31.9994 0.668885C27.5804 0.668885 23.2014 0.628858 18.7905 0.877026C13.667 1.12519 9.11993 2.29398 5.3734 6.04051C1.61886 9.79505 0.458079 14.3341 0.209911 19.4576C-0.0382564 23.8766 0.00177081 28.2555 0.00177081 32.6665C0.00177081 37.0775 -0.0382564 41.4644 0.209911 45.8754C0.458079 50.9989 1.62687 55.546 5.3734 59.2925C9.12794 63.047 13.667 64.2078 18.7905 64.456C23.2095 64.7041 27.5884 64.6641 31.9994 64.6641C36.4184 64.6641 40.7973 64.7041 45.2083 64.456C50.3318 64.2078 54.8789 63.039 58.6254 59.2925C62.3799 55.538 63.5407 50.9989 63.7889 45.8754C64.045 41.4644 63.997 37.0855 63.997 32.6665ZM31.9914 49.0856C22.9052 49.0856 15.5723 41.7526 15.5723 32.6665C15.5723 23.5804 22.9052 16.2474 31.9914 16.2474C41.0775 16.2474 48.4105 23.5804 48.4105 32.6665C48.4105 41.7526 41.0775 49.0856 31.9914 49.0856ZM49.0829 19.4095C46.9615 19.4095 45.2483 17.6964 45.2483 15.575C45.2483 13.4535 46.9615 11.7404 49.0829 11.7404C51.2044 11.7404 52.9175 13.4535 52.9175 15.575C52.9182 16.0787 52.8194 16.5776 52.6269 17.0431C52.4344 17.5087 52.152 17.9316 51.7958 18.2878C51.4396 18.644 51.0166 18.9265 50.5511 19.1189C50.0856 19.3114 49.5867 19.4102 49.0829 19.4095Z" fill="#FFFFFF"/>
</svg>
