<svg width="64" height="65" viewBox="0 0 64 65" fill="none" xmlns="http://www.w3.org/2000/svg">
<path d="M63.0486 13.8318C60.8219 14.8185 58.4299 15.4852 55.9153 15.7865C58.5099 14.2339 60.4511 11.7904 61.3766 8.91182C58.9389 10.3598 56.2709 11.379 53.4886 11.9252C51.6176 9.92746 49.1394 8.60336 46.4388 8.15842C43.7382 7.71348 40.9662 8.1726 38.5532 9.46449C36.1403 10.7564 34.2213 12.8088 33.0943 15.303C31.9674 17.7973 31.6954 20.5938 32.3206 23.2585C27.3811 23.0105 22.5489 21.7266 18.1377 19.4902C13.7265 17.2538 9.83484 14.1149 6.71527 10.2772C5.6486 12.1172 5.03527 14.2505 5.03527 16.5225C5.03408 18.5678 5.53775 20.5818 6.50161 22.3858C7.46547 24.1897 8.8597 25.7279 10.5606 26.8638C8.588 26.8011 6.65893 26.268 4.93393 25.3092V25.4691C4.93374 28.3378 5.92602 31.1182 7.74242 33.3385C9.55882 35.5588 12.0875 37.0823 14.8993 37.6505C13.0694 38.1457 11.1508 38.2187 9.2886 37.8638C10.0819 40.3321 11.6273 42.4906 13.7082 44.037C15.7892 45.5834 18.3017 46.4403 20.8939 46.4878C16.4935 49.9422 11.059 51.8161 5.4646 51.8078C4.47362 51.8081 3.48347 51.7502 2.49927 51.6345C8.17787 55.2856 14.7882 57.2233 21.5393 57.2158C44.3926 57.2158 56.8859 38.2878 56.8859 21.8718C56.8859 21.3385 56.8726 20.7998 56.8486 20.2665C59.2787 18.5091 61.3764 16.3329 63.0433 13.8398L63.0486 13.8318Z" fill="#FFFFFF"/>
</svg>
